<svg xmlns="http://www.w3.org/2000/svg" viewBox="0 0 784 86" height="86" width="784"><metadata/><g fill-rule="evenodd" fill="none"><g><path fill="#fff" d="M 132.857,8.3574 H 150 V 35 h 29.351 V 8.3574 h 17.143 V 77.2383 H 179.351 V 49.2961 H 150 v 27.9422 h -17.143 z"/><path fill="#fff" d="m 243.294,78.7979 c -4.675,0 -9.134,-0.6932 -13.377,-2.0795 -4.156,-1.4729 -7.792,-3.6389 -10.909,-6.4981 -3.117,-2.9459 -5.585,-6.6282 -7.403,-11.047 -1.818,-4.5054 -2.727,-9.7473 -2.727,-15.7256 v -2.5993 c 0,-5.7184 0.866,-10.7004 2.597,-14.9458 1.732,-4.2455 4.113,-7.7546 7.143,-10.5271 3.031,-2.8592 6.537,-4.982 10.52,-6.3682 3.983,-1.473 8.268,-2.2094 12.857,-2.2094 10.823,0 19.048,2.8592 24.676,8.5776 5.628,5.7184 8.442,13.9928 8.442,24.8231 v 7.278 h -48.702 c 0.086,3.0325 0.606,5.6751 1.558,7.9278 0.952,2.166 2.208,3.9422 3.766,5.3285 1.559,1.3863 3.334,2.426 5.325,3.1191 2.078,0.6065 4.156,0.9098 6.234,0.9098 4.416,0 7.749,-0.6499 10,-1.9495 2.251,-1.2996 3.853,-3.2058 4.805,-5.7184 h 15.715 c -1.385,7.1913 -4.805,12.6065 -10.26,16.2455 -5.455,3.639 -12.208,5.4585 -20.26,5.4585 z M 242.645,20.834 c -1.992,0 -3.983,0.2599 -5.974,0.7797 -1.905,0.5199 -3.594,1.343 -5.066,2.4694 -1.471,1.1263 -2.684,2.6426 -3.636,4.5487 -0.952,1.9061 -1.472,4.2022 -1.558,6.8881 h 32.078 c -0.087,-2.8592 -0.563,-5.2419 -1.429,-7.148 -0.779,-1.9062 -1.904,-3.4224 -3.376,-4.5488 -1.386,-1.1263 -3.031,-1.9061 -4.935,-2.3393 -1.905,-0.4332 -3.94,-0.6498 -6.104,-0.6498 z"/><path fill="#fff" d="M 302.946,22.6535 H 280.998 V 8.3574 h 61.039 v 14.2961 h -21.948 v 54.5848 h -17.143 z"/><path fill="#fff" d="m 382.298,78.7979 c -4.676,0 -9.135,-0.6932 -13.377,-2.0795 -4.156,-1.4729 -7.792,-3.6823 -10.909,-6.6281 -3.117,-2.9459 -5.585,-6.6282 -7.403,-11.0469 -1.818,-4.4188 -2.727,-9.6174 -2.727,-15.5957 v -2.5993 c 0,-5.6318 0.909,-10.5704 2.727,-14.8159 1.818,-4.2455 4.286,-7.7978 7.403,-10.657 3.117,-2.8592 6.753,-4.982 10.909,-6.3682 4.242,-1.473 8.701,-2.2094 13.377,-2.2094 4.675,0 9.091,0.7364 13.247,2.2094 4.156,1.3862 7.792,3.509 10.909,6.3682 3.204,2.8592 5.714,6.4115 7.533,10.657 1.818,4.2455 2.727,9.1841 2.727,14.8159 v 2.5993 c 0,5.8917 -0.909,11.0469 -2.727,15.4657 -1.819,4.4188 -4.329,8.1011 -7.533,11.0469 -3.117,2.9459 -6.753,5.1553 -10.909,6.6282 -4.156,1.4729 -8.572,2.2094 -13.247,2.2094 z m 0,-14.556 c 4.848,0 8.874,-1.7328 12.078,-5.1985 3.29,-3.4657 4.935,-8.6643 4.935,-15.5957 v -2.5993 c 0,-6.3249 -1.645,-11.1336 -4.935,-14.426 -3.204,-3.379 -7.23,-5.0686 -12.078,-5.0686 -4.935,0 -9.005,1.6896 -12.208,5.0686 -3.204,3.2924 -4.805,8.1011 -4.805,14.426 v 2.5993 c 0,7.018 1.601,12.2599 4.805,15.7256 3.203,3.3791 7.273,5.0686 12.208,5.0686 z"/><path fill="#fff" d="m 428.382,78.7979 c -0.693,0 -1.558,-0.0434 -2.597,-0.13 -1.039,0 -1.905,-0.0866 -2.598,-0.2599 V 62.9423 c 0.433,0.0866 1.083,0.1299 1.948,0.1299 1.645,0 3.074,-0.4765 4.286,-1.4296 1.212,-1.0397 2.208,-2.7725 2.987,-5.1985 0.866,-2.426 1.472,-5.6318 1.818,-9.6173 0.433,-4.0723 0.65,-9.0975 0.65,-15.0759 V 8.3574 h 54.546 V 77.2383 H 472.279 V 22.6535 H 450.72 v 11.6967 c 0,8.9242 -0.476,16.2888 -1.428,22.0939 -0.866,5.7184 -2.252,10.2238 -4.156,13.5162 -1.819,3.2924 -4.156,5.5885 -7.013,6.8881 -2.771,1.2996 -6.018,1.9495 -9.741,1.9495 z"/><path fill="#fff" d="m 536.141,78.7979 c -4.676,0 -9.135,-0.6932 -13.377,-2.0795 -4.156,-1.4729 -7.793,-3.6823 -10.91,-6.6281 -3.117,-2.9459 -5.584,-6.6282 -7.402,-11.0469 -1.819,-4.4188 -2.728,-9.6174 -2.728,-15.5957 v -2.5993 c 0,-5.6318 0.909,-10.5704 2.728,-14.8159 1.818,-4.2455 4.285,-7.7978 7.402,-10.657 3.117,-2.8592 6.754,-4.982 10.91,-6.3682 4.242,-1.473 8.701,-2.2094 13.377,-2.2094 4.675,0 9.091,0.7364 13.246,2.2094 4.156,1.3862 7.793,3.509 10.91,6.3682 3.203,2.8592 5.714,6.4115 7.532,10.657 1.818,4.2455 2.728,9.1841 2.728,14.8159 v 2.5993 c 0,5.8917 -0.91,11.0469 -2.728,15.4657 -1.818,4.4188 -4.329,8.1011 -7.532,11.0469 -3.117,2.9459 -6.754,5.1553 -10.91,6.6282 -4.155,1.4729 -8.571,2.2094 -13.246,2.2094 z m 0,-14.556 c 4.848,0 8.874,-1.7328 12.078,-5.1985 3.29,-3.4657 4.935,-8.6643 4.935,-15.5957 v -2.5993 c 0,-6.3249 -1.645,-11.1336 -4.935,-14.426 -3.204,-3.379 -7.23,-5.0686 -12.078,-5.0686 -4.936,0 -9.005,1.6896 -12.208,5.0686 -3.204,3.2924 -4.806,8.1011 -4.806,14.426 v 2.5993 c 0,7.018 1.602,12.2599 4.806,15.7256 3.203,3.3791 7.272,5.0686 12.208,5.0686 z"/><path fill="#fff" d="m 584.142,8.3574 h 49.352 v 14.2961 h -32.208 v 54.5848 h -17.144 z"/><path fill="#fff" d="m 643.848,8.3574 h 17.143 v 44.1878 l 30.65,-44.1878 h 15.844 V 77.2383 H 690.342 V 33.0506 l -30.649,44.1877 h -15.845 z"/><path fill="#fff" d="m 737.012,51.3755 c -5.281,-1.7329 -9.134,-4.3321 -11.558,-7.7978 -2.425,-3.4658 -3.637,-7.538 -3.637,-12.2167 0,-3.379 0.563,-6.4548 1.688,-9.2274 1.213,-2.8592 2.987,-5.2852 5.325,-7.278 2.338,-2.0794 5.282,-3.6823 8.832,-4.8086 3.636,-1.1264 7.878,-1.6896 12.727,-1.6896 h 32.468 V 77.2383 H 765.714 V 53.4549 H 753.376 L 738.441,77.2383 H 719.22 Z M 738.96,31.361 c 0,2.9459 0.953,5.112 2.857,6.4982 1.992,1.3863 4.633,2.0795 7.923,2.0795 h 15.974 V 22.6535 H 749.74 c -3.29,0 -5.931,0.7364 -7.923,2.2093 -1.904,1.3863 -2.857,3.5524 -2.857,6.4982 z"/><path fill="#5D00F5" d="M22.1591,45.0662 C21.6118,45.0223 21.0585,45 20.5,45 C9.17816,45 0,54.1782 0,65.5 C0,76.8218 9.17816,86 20.5,86 C31.8218,86 41,76.8218 41,65.5 C41,64.6309 40.9459,63.7745 40.8409,62.9338 C31.1465,62.1574 23.3542,54.6366 22.1591,45.0662 Z"/><path fill="#EB236B" d="M41,20.5 C41,9.1782 31.8218,0 20.5,0 C9.17816,0 1.1248e-06,9.1782 0,20.5 C-2.03663e-06,31.8218 9.17816,41 20.5,41 C21.0243,41 21.544,40.9803 22.0583,40.9417 C22.816,30.8622 30.8622,22.816 40.9417,22.0583 C40.9803,21.544 41,21.0243 41,20.5 Z"/><path fill="#4BD0A0" d="M62.9338,40.8409 C63.7745,40.9459 64.6309,41 65.5,41 C76.8218,41 86,31.8218 86,20.5 C86,9.1782 76.8218,0 65.5,0 C54.1782,0 45,9.1782 45,20.5 C45,21.0585 45.0223,21.6118 45.0662,22.1591 C54.6366,23.3542 62.1574,31.1465 62.9338,40.8409 Z"/><path fill="#06F" d="M45.1726,62.8274 C45.0587,63.7021 45,64.5942 45,65.5 C45,76.8218 54.1782,86 65.5,86 C76.8218,86 86,76.8218 86,65.5 C86,54.1782 76.8218,45 65.5,45 C64.5942,45 63.7021,45.0587 62.8274,45.1726 C61.6316,54.3569 54.3569,61.6316 45.1726,62.8274 Z"/></g></g></svg>